<?xml version="1.0" encoding="utf-8"?>
<!-- Generator: Adobe Illustrator 24.0.0, SVG Export Plug-In . SVG Version: 6.00 Build 0)  -->
<svg version="1.1" id="Capa_1" xmlns="http://www.w3.org/2000/svg" xmlns:xlink="http://www.w3.org/1999/xlink" x="0px" y="0px"
	 viewBox="0 0 612 792" style="enable-background:new 0 0 524 168;" xml:space="preserve">
<style type="text/css">
	.st0{fill:#F4DA38;}
	.st1{fill-rule:evenodd;clip-rule:evenodd;fill:#3864CA;}
	.st2{fill:#B4001E;}
	.st3{fill:#202020;}
	.st4{fill:#7F7F7F;}
</style>
<path class="st0" d="M236.73,357.27H113.95c-15.34,0-23.03,7.69-23.03,23.03v60.94h24.31v-49.47c0-8.25,1.81-10.22,8.56-10.19
	l112.94,0.03V357.27z"/>
<path class="st1" d="M236.73,388.73H130.29c-5.75,0-7.59,2.19-7.59,7.69v37.16c0,4.81,2.87,7.69,7.69,7.69h12.53h1.37h31.78
	c3.06,0,4.66,1.31,4.59,4.16c-0.06,2.81-1.53,4.09-4.59,4.09H90.92v22.16h106.34c6.12,0,7.69-1.56,7.69-6.97v-37.22
	c0-6.56-1.31-8.31-7.69-8.31H151.6c-3,0-4.59-1.5-4.62-4.09c-0.03-2.59,1.47-4.16,4.62-4.16h85.12V388.73z"/>
<path class="st2" d="M90.92,503.08h121.5c15.34,0,24.31-7.69,24.31-23.03v-60.97h-24.31v49.75c0,6.97-2.56,9.94-9.56,9.94H90.92
	V503.08z"/>
<path class="st3" d="M261.01,383.26c0-9.66,6.62-14.47,19.91-14.47h65.22v14.47h-59c-4.16,0-6.22,1.06-6.22,3.22v4.97
	c0,2.56,2.25,3.84,6.72,3.84h38.59c13.28,0,19.91,4.81,19.91,14.47v12.06c0,9.66-6.62,14.47-19.91,14.47h-65.22v-14.47h58.59
	c4.41,0,6.62-1.31,6.62-3.91v-5.12c0-2.03-2.81-3.03-8.47-3.03h-36.84c-13.28,0-19.91-4.81-19.91-14.47L261.01,383.26L261.01,383.26
	z"/>
<path class="st3" d="M383.04,407.39L383.04,407.39h17.72l-9.12-20.12L383.04,407.39z M346.07,436.33l28.19-57.87
	c1.44-3.22,3.66-5.62,6.62-7.25c2.97-1.59,6.56-2.41,10.72-2.41c4.62,0,8.31,0.81,11.06,2.41c2.75,1.59,4.81,4.03,6.19,7.25
	l28.31,57.87h-22.78l-7.59-14.47h-30.37l-7.59,14.47H346.07z"/>
<path class="st3" d="M463.16,397.73L463.16,397.73h34.22c3.31,0,4.97-1.59,4.97-4.81v-6.56c0-2.06-1.66-3.09-4.97-3.09h-34.22
	V397.73z M443.41,436.33V368.8h58.97c13.28,0,19.91,4.81,19.91,14.47v14.47c0,9.66-6.62,14.47-19.91,14.47h-39.19v24.12H443.41z"/>
<rect x="528.32" y="368.8" class="st3" width="18.25" height="67.53"/>
<path class="st4" d="M541.5,460.08c-0.63,3.22-2.47,4.97-3.97,4.97c-1.41,0-1.94-1.09-1.94-2.41c0-2.87,2.31-6,5.31-6
	c0.59,0,1,0.06,1.34,0.12L541.5,460.08z M543.91,467.2c-0.06-1.5,0.16-3.87,0.56-5.75l1.38-6.59c-1.03-0.31-2.59-0.56-4.09-0.56
	c-6.31,0-9.53,4.59-9.53,8.91c0,2.53,1.59,4.31,4,4.31c1.72,0,3.5-0.81,4.84-3.12h0.09c-0.12,1.09-0.22,2.09-0.25,2.84h3V467.2z
	 M528.13,467.2l3.75-18.41h-3.22l-3.78,18.41H528.13z M515.5,457.86c0,1.5-2.12,1.94-5.47,1.91c0.37-1.53,1.72-3.22,3.75-3.22
	C514.82,456.54,515.5,457.01,515.5,457.86z M516.57,464.26c-0.97,0.47-2.19,0.84-3.72,0.84c-1.28,0-2.25-0.44-2.78-1.31
	c-0.31-0.5-0.41-1.34-0.38-1.78c5.22,0.09,8.84-0.94,8.84-4.19c0-2.09-1.69-3.56-4.34-3.56c-4.66,0-7.66,4.16-7.66,7.97
	c0,3.09,1.81,5.22,5.56,5.22c1.63,0,3.44-0.34,4.78-1L516.57,464.26z M500.41,460.95c-0.56,2.63-2.28,4.09-3.72,4.09
	c-1.53,0-2.16-1.19-2.16-2.72c0-2.81,2.06-5.72,4.84-5.72c0.81,0,1.47,0.22,1.88,0.5L500.41,460.95z M502.88,448.79l-1.19,5.87
	c-0.59-0.25-1.38-0.37-2.09-0.37c-4.97,0-8.44,4.06-8.44,8.5c0,2.84,1.69,4.69,4.09,4.69c1.75,0,3.41-0.81,4.62-2.53h0.06
	l-0.28,2.25h2.97c0.09-1.37,0.31-3.03,0.62-4.47l2.84-13.94L502.88,448.79L502.88,448.79z M478.28,456.61
	c1.97,0,2.59,1.59,2.59,2.91c0,2.5-1.63,5.62-4.03,5.62c-1.63,0-2.62-1.22-2.62-2.97C474.19,459.83,475.69,456.61,478.28,456.61z
	 M478.66,454.29c-4.59,0-7.81,3.72-7.81,8c0,3,2.12,5.22,5.53,5.22c4.59,0,7.84-3.69,7.84-7.97
	C484.22,456.73,482.32,454.29,478.66,454.29z M450.66,467.2l1.16-6c0.5-2.56,2.22-4.47,3.72-4.47c1.31,0,1.62,0.84,1.62,1.81
	c0,0.47-0.06,0.97-0.16,1.47l-1.44,7.16h3.09l1.22-6.03c0.53-2.66,2.16-4.41,3.62-4.41c1.19,0,1.66,0.72,1.66,1.78
	c0,0.53-0.12,1.09-0.19,1.59l-1.41,7.06h3.12l1.5-7.37c0.12-0.69,0.22-1.59,0.22-2.16c0-2.25-1.44-3.38-3.31-3.38
	c-1.88,0.03-3.59,0.84-4.78,2.59c-0.13-1.34-1.09-2.59-3.19-2.59c-1.75,0-3.41,0.81-4.69,2.5h-0.03l0.28-2.22h-2.81
	c-0.12,1.09-0.37,2.41-0.66,3.91l-1.72,8.72h3.16V467.2z M439.94,456.61c1.97,0,2.59,1.59,2.59,2.91c0,2.5-1.63,5.62-4.03,5.62
	c-1.63,0-2.62-1.22-2.62-2.97C435.88,459.83,437.38,456.61,439.94,456.61z M440.35,454.29c-4.59,0-7.81,3.72-7.81,8
	c0,3,2.12,5.22,5.53,5.22c4.59,0,7.84-3.69,7.84-7.97C445.88,456.73,443.97,454.29,440.35,454.29z M419.91,467.2l1.16-5.84
	c0.59-2.97,2.47-4.62,3.94-4.62c1.28,0,1.69,0.78,1.69,1.81c0,0.5-0.09,1.03-0.16,1.5l-1.44,7.12h3.22l1.5-7.34
	c0.12-0.66,0.25-1.53,0.25-2.09c0-2.37-1.53-3.47-3.44-3.47c-1.88,0-3.62,0.84-4.87,2.56h-0.06l0.28-2.28h-2.84
	c-0.16,1.09-0.38,2.41-0.69,3.91l-1.75,8.72h3.22V467.2z M409.13,456.61c1.97,0,2.59,1.59,2.59,2.91c0,2.5-1.63,5.62-4.03,5.62
	c-1.62,0-2.62-1.22-2.62-2.97C405.07,459.83,406.57,456.61,409.13,456.61z M409.54,454.29c-4.59,0-7.81,3.72-7.81,8
	c0,3,2.09,5.22,5.53,5.22c4.59,0,7.81-3.69,7.81-7.97C415.07,456.73,413.16,454.29,409.54,454.29z M410.91,449.2l-2.69,3.84h2.44
	l3.66-3.84H410.91z M395.66,451.86l-0.56,2.72h-1.84l-0.47,2.34h1.84l-1.16,5.62c-0.22,0.94-0.31,1.63-0.31,2.34
	c0,1.44,1,2.59,3.22,2.59c0.78,0,1.62-0.09,2.12-0.25l0.31-2.34c-0.34,0.06-0.72,0.06-1.09,0.06c-0.87,0-1.19-0.44-1.19-1.12
	c0-0.53,0.13-1.19,0.22-1.78l1.09-5.09h3.03l0.5-2.34h-3.06l0.69-3.47L395.66,451.86z M387.47,454.58l-1.25,6.16
	c-0.53,2.63-2.28,4.28-3.78,4.28c-1.28,0-1.72-0.75-1.72-1.78c0-0.5,0.09-1.12,0.22-1.75l1.38-6.91h-3.22l-1.44,7.06
	c-0.19,0.84-0.28,1.59-0.28,2.25c0,2.59,1.56,3.56,3.53,3.56c1.69,0,3.37-0.84,4.69-2.5h0.06l-0.28,2.22h2.84
	c0.16-1.09,0.38-2.41,0.66-3.91l1.78-8.72h-3.19V454.58z M365.76,459.89l2.28-4.34c0.53-1.03,1.03-2.28,1.53-3.31h0.06
	c0.09,1.03,0.19,2.38,0.28,3.31l0.53,4.34H365.76z M370.6,462.2l0.53,4.97h3.37l-2.34-17.47h-4.06l-9.37,17.47h3.44l2.56-4.97H370.6
	z M347.41,456.61c1.97,0,2.59,1.59,2.59,2.91c0,2.5-1.63,5.62-4.03,5.62c-1.63,0-2.62-1.22-2.62-2.97
	C343.32,459.83,344.82,456.61,347.41,456.61z M347.79,454.29c-4.59,0-7.81,3.72-7.81,8c0,3,2.12,5.22,5.53,5.22
	c4.62,0,7.81-3.69,7.81-7.97C353.35,456.73,351.44,454.29,347.79,454.29z M337.26,452.76c1.09,0,1.97-0.69,2-1.81
	c0-0.97-0.72-1.63-1.72-1.63c-1.06,0-1.94,0.75-1.94,1.84C335.57,452.08,336.26,452.76,337.26,452.76z M335.72,467.2l2.59-12.62
	h-3.25l-2.56,12.62H335.72z M329.88,464.42c-0.69,0.28-1.62,0.59-2.87,0.59c-1.81,0-2.97-1.06-2.97-2.97c0-2.63,1.97-5.31,5.09-5.31
	c0.88,0,1.53,0.19,2.03,0.41l0.84-2.34c-0.5-0.22-1.56-0.5-2.75-0.5c-5.03,0-8.59,3.75-8.59,8.16c0,3,2.09,5.03,5.47,5.03
	c1.72,0,3.12-0.34,3.87-0.69L329.88,464.42z M317.94,452.76c1.09,0,1.97-0.69,2-1.81c0-0.97-0.72-1.63-1.72-1.63
	c-1.06,0-1.94,0.75-1.94,1.84C316.26,452.08,316.94,452.76,317.94,452.76z M316.41,467.2l2.59-12.62h-3.25l-2.56,12.62H316.41z
	 M300.26,454.58l2.31,12.62h3.25l7.53-12.62h-3.59l-3.34,6.34c-0.75,1.5-1.13,2.41-1.47,3.22h-0.09c-0.06-0.84-0.22-1.78-0.37-3.28
	l-0.87-6.28L300.26,454.58L300.26,454.58z M292.23,467.2l1.03-5.09c0.53-2.69,2-4.87,4.31-4.87c0.22,0,0.44,0.03,0.62,0.06
	l0.62-2.97c-0.22-0.03-0.47-0.06-0.69-0.06c-1.87,0-3.34,1.25-4.25,2.97h-0.09c0.12-0.94,0.22-1.81,0.31-2.66h-2.81
	c-0.16,1.16-0.34,3.06-0.69,4.84l-1.59,7.78H292.23z M284.73,457.86c0,1.5-2.12,1.94-5.47,1.91c0.38-1.53,1.72-3.22,3.75-3.22
	C284.04,456.54,284.73,457.01,284.73,457.86z M285.79,464.26c-0.97,0.47-2.19,0.84-3.72,0.84c-1.28,0-2.25-0.44-2.78-1.31
	c-0.31-0.5-0.41-1.34-0.38-1.78c5.22,0.09,8.84-0.94,8.84-4.19c0-2.09-1.69-3.56-4.34-3.56c-4.66,0-7.66,4.16-7.66,7.97
	c0,3.09,1.81,5.22,5.56,5.22c1.62,0,3.44-0.34,4.78-1L285.79,464.26z M261.01,466.23c0.84,0.63,2.69,1.22,4.97,1.22
	c4.19,0,7.22-2.16,7.22-5.66c0-2.12-1.34-3.53-3.62-4.66c-1.75-0.94-2.81-1.63-2.81-2.81c0-1.16,1.16-2.28,3.22-2.28
	c1.53-0.03,2.78,0.47,3.37,0.78l1.06-2.5c-0.72-0.41-2.09-0.88-4.16-0.88c-3.78,0-6.87,2.09-6.87,5.44c0,2.06,1.63,3.47,3.81,4.56
	c1.84,0.91,2.62,1.69,2.62,2.81c0,1.69-1.66,2.59-3.47,2.59c-1.62,0-3.16-0.47-4.22-1.12L261.01,466.23z"/>
<path class="st4" d="M539.88,491.58l4.09-18.84h-4.31l-4.09,18.84H539.88z M528.88,484.29c-0.66,3.19-2.25,4.47-3.53,4.47
	c-1.19,0-1.78-0.88-1.78-2.16c0-2.41,2.03-5.44,4.84-5.44c0.41,0,0.84,0.06,1.16,0.09L528.88,484.29z M532.32,491.58
	c-0.06-1.63,0.22-4.16,0.56-5.84l1.56-6.78c-1.22-0.34-3.12-0.63-4.87-0.63c-7.25,0-10.5,4.66-10.5,9.06c0,2.72,1.81,4.5,4.44,4.5
	c1.72,0,3.56-0.72,4.94-2.87h0.09c-0.09,0.94-0.19,1.81-0.22,2.56L532.32,491.58L532.32,491.58z M513.66,478.61l-1.28,6
	c-0.56,2.59-2.06,4.16-3.53,4.16c-1.13,0-1.47-0.66-1.47-1.5c0-0.47,0.09-1.12,0.22-1.69l1.47-6.94h-4.31l-1.53,7.25
	c-0.22,0.91-0.31,1.69-0.31,2.38c0,2.47,1.41,3.62,3.75,3.62c1.75,0,3.56-0.72,5.06-2.41h0.06l-0.28,2.12h3.81
	c0.22-1.16,0.41-2.56,0.78-4.22l1.91-8.75h-4.34V478.61z M495.28,475.86l-0.59,2.75h-1.88l-0.59,2.91h1.88l-1.16,5.19
	c-0.22,0.97-0.31,1.69-0.31,2.41c0,1.63,1.22,2.78,3.81,2.78c0.94,0,2-0.09,2.56-0.28l0.5-3c-0.41,0.06-0.81,0.06-1.19,0.06
	c-0.94,0-1.22-0.44-1.22-1.09c0-0.44,0.12-1.12,0.25-1.66l1-4.41h3.12l0.62-2.91h-3.12l0.78-3.62L495.28,475.86z M488.53,488.26
	c-0.75,0.28-1.66,0.53-2.91,0.53c-1.63,0-2.87-0.91-2.87-2.69c0-2.44,1.91-4.75,4.97-4.75c0.87,0,1.47,0.12,1.97,0.31l1.06-2.91
	c-0.62-0.25-1.72-0.44-2.97-0.44c-5.59,0-9.56,3.62-9.56,8.22c0,3.38,2.56,5.31,6.19,5.31c1.75,0,3.25-0.25,4.16-0.66L488.53,488.26
	z M472.41,482.2c0,1.16-1.69,1.59-5.03,1.56c0.31-1.22,1.44-2.69,3.47-2.69C471.82,481.08,472.41,481.54,472.41,482.2z
	 M474.35,488.08c-1.16,0.5-2.53,0.81-4.12,0.81c-1.25,0-2.25-0.34-2.81-1c-0.31-0.37-0.44-0.97-0.44-1.31
	c5.87,0.12,9.53-1.06,9.53-4.38c0-2.41-2.12-3.87-5.09-3.87c-5.31,0-8.56,4.12-8.56,8.06c0,3.38,2.16,5.47,6.37,5.47
	c1.62,0,3.75-0.25,5.47-1L474.35,488.08z M458.54,491.58l4.09-18.84h-4.31l-4.09,18.84H458.54z M449.04,482.2
	c0,1.16-1.69,1.59-5.03,1.56c0.31-1.22,1.44-2.69,3.44-2.69C448.44,481.08,449.04,481.54,449.04,482.2z M450.94,488.08
	c-1.19,0.5-2.53,0.81-4.12,0.81c-1.25,0-2.25-0.34-2.81-1c-0.31-0.37-0.44-0.97-0.44-1.31c5.87,0.12,9.53-1.06,9.53-4.38
	c0-2.41-2.12-3.87-5.09-3.87c-5.31,0-8.56,4.12-8.56,8.06c0,3.38,2.16,5.47,6.37,5.47c1.63,0,3.75-0.25,5.47-1L450.94,488.08z
	 M432.38,475.86l-0.59,2.75h-1.91l-0.59,2.91h1.88L430,486.7c-0.22,0.97-0.31,1.69-0.31,2.41c0,1.63,1.22,2.78,3.81,2.78
	c0.94,0,2-0.09,2.56-0.28l0.5-3c-0.41,0.06-0.81,0.06-1.19,0.06c-0.94,0-1.22-0.44-1.22-1.09c0-0.44,0.12-1.12,0.25-1.66l1-4.41
	h3.12l0.62-2.91h-3.12l0.78-3.62L432.38,475.86z M415.69,491.58l1.22-5.75c0.59-2.87,2.25-4.44,3.66-4.44
	c1.09,0,1.44,0.63,1.44,1.53c0,0.47-0.06,1-0.16,1.47l-1.53,7.19h4.31l1.62-7.53c0.12-0.63,0.25-1.63,0.25-2.19
	c0-2.22-1.34-3.53-3.75-3.53c-1.97,0-3.78,0.75-5.16,2.44h-0.06l0.31-2.16H414c-0.19,1.16-0.41,2.56-0.78,4.22l-1.88,8.75
	L415.69,491.58L415.69,491.58z M406.88,473.7l-3.84,17.87h4.31l3.84-17.87H406.88z M390.69,485.14c-0.56,2.47-2.09,3.62-3.34,3.62
	c-1.25,0-2.03-0.88-2.03-2.44c0-2.5,1.81-5.16,4.41-5.16c0.72,0,1.37,0.22,1.72,0.44L390.69,485.14z M393.32,472.73l-1.25,5.87
	c-0.66-0.22-1.44-0.28-2.03-0.28c-5.53,0-9.25,4.16-9.25,8.66c0,3.16,2.06,4.91,4.56,4.91c1.72,0,3.5-0.66,4.78-2.38h0.06
	l-0.22,2.09h3.97c0.06-1.53,0.34-3.38,0.69-5.03l2.97-13.78h-4.28V472.73z M373.76,484.29c-0.66,3.19-2.25,4.47-3.53,4.47
	c-1.19,0-1.78-0.88-1.78-2.16c0-2.41,2.03-5.44,4.84-5.44c0.41,0,0.84,0.06,1.19,0.09L373.76,484.29z M377.19,491.58
	c-0.06-1.63,0.22-4.16,0.56-5.84l1.56-6.78c-1.22-0.34-3.12-0.63-4.87-0.63c-7.25,0-10.5,4.66-10.5,9.06c0,2.72,1.81,4.5,4.44,4.5
	c1.72,0,3.56-0.72,4.94-2.87h0.09c-0.09,0.94-0.19,1.81-0.22,2.56L377.19,491.58L377.19,491.58z M356.85,485.14
	c-0.56,2.47-2.09,3.62-3.31,3.62c-1.25,0-2.03-0.88-2.03-2.44c0-2.5,1.81-5.16,4.41-5.16c0.72,0,1.37,0.22,1.72,0.44L356.85,485.14z
	 M359.51,472.73l-1.25,5.87c-0.66-0.22-1.44-0.28-2.03-0.28c-5.53,0-9.25,4.16-9.25,8.66c0,3.16,2.06,4.91,4.56,4.91
	c1.72,0,3.5-0.66,4.78-2.38h0.06l-0.22,2.09h3.97c0.06-1.53,0.34-3.38,0.69-5.03l2.97-13.78h-4.28V472.73z M341.29,482.2
	c0,1.16-1.69,1.59-5.03,1.56c0.31-1.22,1.44-2.69,3.44-2.69C340.69,481.08,341.29,481.54,341.29,482.2z M343.19,488.08
	c-1.16,0.5-2.53,0.81-4.12,0.81c-1.25,0-2.25-0.34-2.81-1c-0.31-0.37-0.44-0.97-0.44-1.31c5.87,0.12,9.53-1.06,9.53-4.38
	c0-2.41-2.12-3.87-5.09-3.87c-5.31,0-8.56,4.12-8.56,8.06c0,3.38,2.16,5.47,6.37,5.47c1.63,0,3.75-0.25,5.47-1L343.19,488.08z
	 M328.57,476.98c1.38,0,2.56-0.78,2.56-2.16c0-1.12-0.91-1.87-2.16-1.87c-1.31,0-2.47,0.88-2.5,2.19
	C326.47,476.26,327.38,476.98,328.57,476.98z M327.41,491.58l2.78-12.97h-4.31l-2.78,12.97H327.41z M311.54,485.54
	c0.53-2.56,2.03-4.16,3.66-4.16c1.41,0,1.88,1.09,1.88,2.12c0,2.56-1.81,5.47-4.09,5.47c-0.84,0-1.5-0.25-1.97-0.63L311.54,485.54z
	 M309.13,496.83l1.19-5.5h0.06c0.53,0.25,1.53,0.53,2.75,0.53c5.09,0,8.5-4.12,8.5-8.66c0-2.66-1.53-4.91-4.72-4.91
	c-1.78,0-3.5,0.78-4.72,2.19h-0.06l0.28-1.87h-3.87c-0.19,1.31-0.53,3.47-0.87,5l-2.81,13.22L309.13,496.83L309.13,496.83z
	 M297.73,481.2c1.75,0,2.31,1.28,2.31,2.47c0,2.22-1.31,5.28-3.69,5.28c-1.5,0-2.34-1-2.34-2.53
	C293.98,484.42,295.26,481.2,297.73,481.2z M298.32,478.29c-5.22,0-8.78,3.69-8.78,8.19c0,3.22,2.5,5.34,6.22,5.34
	c5.09,0,8.78-3.47,8.78-8.22C304.51,480.7,302.23,478.29,298.32,478.29z M282.04,491.58l1.03-4.81c0.53-2.56,1.84-4.72,4.59-4.72
	c0.25,0,0.47,0,0.69,0.03l0.84-3.72c-0.28-0.03-0.53-0.03-0.81-0.03c-2,0-3.66,1.22-4.69,2.94h-0.09c0.09-0.91,0.19-1.78,0.28-2.66
	h-3.75c-0.16,1.12-0.34,3.28-0.75,5.25l-1.66,7.72H282.04z M268.44,476.73c0.37-0.09,0.94-0.12,1.75-0.12
	c1.69,0,3.09,0.56,3.09,2.28c0,1.78-1.72,3.25-4.31,3.25c-0.72,0-1.19-0.06-1.66-0.12L268.44,476.73z M261.01,491.58h4.22l1.38-6.44
	c0.44,0.06,1.06,0.09,1.78,0.09c2.47,0,4.81-0.5,6.47-1.66c1.59-1.09,2.75-2.78,2.75-5.03c0-1.72-0.84-2.97-2.19-3.78
	c-1.47-0.94-3.56-1.19-5.37-1.19c-1.94,0-4,0.19-5.28,0.47L261.01,491.58z"/>
</svg>
